<mxfile host="app.diagrams.net" modified="2023-06-09T15:10:50.415Z" agent="Mozilla/5.0 (Macintosh; Intel Mac OS X 10_15_7) AppleWebKit/537.36 (KHTML, like Gecko) Chrome/114.0.0.0 Safari/537.36" etag="NyN3zjzhE2BtMatW-x98" version="21.3.8" type="github">
  <diagram name="Page-1" id="kfF2b_FFt_tTAwgurSBV">
    <mxGraphModel dx="1570" dy="917" grid="1" gridSize="10" guides="1" tooltips="1" connect="1" arrows="1" fold="1" page="1" pageScale="1" pageWidth="827" pageHeight="1169" math="0" shadow="0">
      <root>
        <mxCell id="0" />
        <mxCell id="1" parent="0" />
        <mxCell id="d2gbGRnM_CAUKAUHNSUN-1" value="" style="group" vertex="1" connectable="0" parent="1">
          <mxGeometry x="313" y="1000" width="516.25" height="118.75" as="geometry" />
        </mxCell>
        <mxCell id="d2gbGRnM_CAUKAUHNSUN-2" value="" style="group" vertex="1" connectable="0" parent="d2gbGRnM_CAUKAUHNSUN-1">
          <mxGeometry x="100" y="60" width="117.5" height="37.5" as="geometry" />
        </mxCell>
        <mxCell id="d2gbGRnM_CAUKAUHNSUN-3" value="R1" style="ellipse;whiteSpace=wrap;html=1;aspect=fixed;fillColor=#dae8fc;strokeColor=#6c8ebf;" vertex="1" parent="d2gbGRnM_CAUKAUHNSUN-2">
          <mxGeometry y="3.75" width="30" height="30" as="geometry" />
        </mxCell>
        <mxCell id="d2gbGRnM_CAUKAUHNSUN-4" value="Flow1" style="rounded=0;whiteSpace=wrap;html=1;fillColor=#fff2cc;strokeColor=#d6b656;" vertex="1" parent="d2gbGRnM_CAUKAUHNSUN-2">
          <mxGeometry x="30" y="6.25" width="50" height="25" as="geometry" />
        </mxCell>
        <mxCell id="d2gbGRnM_CAUKAUHNSUN-5" value="FR1" style="ellipse;whiteSpace=wrap;html=1;aspect=fixed;fillColor=#f8cecc;strokeColor=#b85450;" vertex="1" parent="d2gbGRnM_CAUKAUHNSUN-2">
          <mxGeometry x="80" width="37.5" height="37.5" as="geometry" />
        </mxCell>
        <mxCell id="d2gbGRnM_CAUKAUHNSUN-6" value="" style="group" vertex="1" connectable="0" parent="d2gbGRnM_CAUKAUHNSUN-1">
          <mxGeometry x="260" y="60" width="117.5" height="37.5" as="geometry" />
        </mxCell>
        <mxCell id="d2gbGRnM_CAUKAUHNSUN-7" value="FR1" style="ellipse;whiteSpace=wrap;html=1;aspect=fixed;fillColor=#dae8fc;strokeColor=#6c8ebf;" vertex="1" parent="d2gbGRnM_CAUKAUHNSUN-6">
          <mxGeometry y="3.75" width="30" height="30" as="geometry" />
        </mxCell>
        <mxCell id="d2gbGRnM_CAUKAUHNSUN-8" value="Flow2" style="rounded=0;whiteSpace=wrap;html=1;fillColor=#fff2cc;strokeColor=#d6b656;" vertex="1" parent="d2gbGRnM_CAUKAUHNSUN-6">
          <mxGeometry x="30" y="6.25" width="50" height="25" as="geometry" />
        </mxCell>
        <mxCell id="d2gbGRnM_CAUKAUHNSUN-9" value="FR2" style="ellipse;whiteSpace=wrap;html=1;aspect=fixed;fillColor=#f8cecc;strokeColor=#b85450;" vertex="1" parent="d2gbGRnM_CAUKAUHNSUN-6">
          <mxGeometry x="80" width="37.5" height="37.5" as="geometry" />
        </mxCell>
        <mxCell id="d2gbGRnM_CAUKAUHNSUN-10" value="Pre-Executor with override=true" style="text;html=1;strokeColor=none;fillColor=none;align=center;verticalAlign=middle;whiteSpace=wrap;rounded=0;" vertex="1" parent="d2gbGRnM_CAUKAUHNSUN-1">
          <mxGeometry width="200" height="30" as="geometry" />
        </mxCell>
        <mxCell id="d2gbGRnM_CAUKAUHNSUN-11" value="Pre-Flow" style="text;html=1;strokeColor=none;fillColor=none;align=center;verticalAlign=middle;whiteSpace=wrap;rounded=0;" vertex="1" parent="d2gbGRnM_CAUKAUHNSUN-1">
          <mxGeometry x="128.75" y="30" width="60" height="30" as="geometry" />
        </mxCell>
        <mxCell id="d2gbGRnM_CAUKAUHNSUN-12" value="" style="endArrow=classic;html=1;rounded=0;exitX=1;exitY=0.5;exitDx=0;exitDy=0;entryX=0;entryY=0.5;entryDx=0;entryDy=0;" edge="1" parent="d2gbGRnM_CAUKAUHNSUN-1" source="d2gbGRnM_CAUKAUHNSUN-5" target="d2gbGRnM_CAUKAUHNSUN-7">
          <mxGeometry width="50" height="50" relative="1" as="geometry">
            <mxPoint x="390" y="340" as="sourcePoint" />
            <mxPoint x="440" y="290" as="targetPoint" />
          </mxGeometry>
        </mxCell>
        <mxCell id="d2gbGRnM_CAUKAUHNSUN-13" value="FR2" style="ellipse;whiteSpace=wrap;html=1;fillColor=#f8cecc;strokeColor=#b85450;" vertex="1" parent="d2gbGRnM_CAUKAUHNSUN-1">
          <mxGeometry x="436.25" y="38.75" width="80" height="80" as="geometry" />
        </mxCell>
        <mxCell id="d2gbGRnM_CAUKAUHNSUN-14" value="" style="edgeStyle=orthogonalEdgeStyle;rounded=0;orthogonalLoop=1;jettySize=auto;html=1;" edge="1" parent="d2gbGRnM_CAUKAUHNSUN-1" source="d2gbGRnM_CAUKAUHNSUN-9" target="d2gbGRnM_CAUKAUHNSUN-13">
          <mxGeometry relative="1" as="geometry" />
        </mxCell>
        <mxCell id="d2gbGRnM_CAUKAUHNSUN-15" value="Main-Flow" style="text;html=1;strokeColor=none;fillColor=none;align=center;verticalAlign=middle;whiteSpace=wrap;rounded=0;" vertex="1" parent="d2gbGRnM_CAUKAUHNSUN-1">
          <mxGeometry x="288.75" y="30" width="60" height="30" as="geometry" />
        </mxCell>
        <mxCell id="d2gbGRnM_CAUKAUHNSUN-16" value="" style="group" vertex="1" connectable="0" parent="1">
          <mxGeometry x="313" y="1480" width="516.25" height="118.75" as="geometry" />
        </mxCell>
        <mxCell id="d2gbGRnM_CAUKAUHNSUN-17" value="" style="group" vertex="1" connectable="0" parent="d2gbGRnM_CAUKAUHNSUN-16">
          <mxGeometry x="100" y="60" width="117.5" height="37.5" as="geometry" />
        </mxCell>
        <mxCell id="d2gbGRnM_CAUKAUHNSUN-18" value="R1" style="ellipse;whiteSpace=wrap;html=1;aspect=fixed;fillColor=#dae8fc;strokeColor=#6c8ebf;" vertex="1" parent="d2gbGRnM_CAUKAUHNSUN-17">
          <mxGeometry y="3.75" width="30" height="30" as="geometry" />
        </mxCell>
        <mxCell id="d2gbGRnM_CAUKAUHNSUN-19" value="Flow1" style="rounded=0;whiteSpace=wrap;html=1;fillColor=#fff2cc;strokeColor=#d6b656;" vertex="1" parent="d2gbGRnM_CAUKAUHNSUN-17">
          <mxGeometry x="30" y="6.25" width="50" height="25" as="geometry" />
        </mxCell>
        <mxCell id="d2gbGRnM_CAUKAUHNSUN-20" value="FR1" style="ellipse;whiteSpace=wrap;html=1;aspect=fixed;fillColor=#f8cecc;strokeColor=#b85450;" vertex="1" parent="d2gbGRnM_CAUKAUHNSUN-17">
          <mxGeometry x="80" width="37.5" height="37.5" as="geometry" />
        </mxCell>
        <mxCell id="d2gbGRnM_CAUKAUHNSUN-21" value="" style="group" vertex="1" connectable="0" parent="d2gbGRnM_CAUKAUHNSUN-16">
          <mxGeometry x="260" y="60" width="117.5" height="37.5" as="geometry" />
        </mxCell>
        <mxCell id="d2gbGRnM_CAUKAUHNSUN-22" value="R1" style="ellipse;whiteSpace=wrap;html=1;aspect=fixed;fillColor=#dae8fc;strokeColor=#6c8ebf;" vertex="1" parent="d2gbGRnM_CAUKAUHNSUN-21">
          <mxGeometry y="3.75" width="30" height="30" as="geometry" />
        </mxCell>
        <mxCell id="d2gbGRnM_CAUKAUHNSUN-23" value="Flow2" style="rounded=0;whiteSpace=wrap;html=1;fillColor=#fff2cc;strokeColor=#d6b656;" vertex="1" parent="d2gbGRnM_CAUKAUHNSUN-21">
          <mxGeometry x="30" y="6.25" width="50" height="25" as="geometry" />
        </mxCell>
        <mxCell id="d2gbGRnM_CAUKAUHNSUN-24" value="FR2" style="ellipse;whiteSpace=wrap;html=1;aspect=fixed;fillColor=#f8cecc;strokeColor=#b85450;" vertex="1" parent="d2gbGRnM_CAUKAUHNSUN-21">
          <mxGeometry x="80" width="37.5" height="37.5" as="geometry" />
        </mxCell>
        <mxCell id="d2gbGRnM_CAUKAUHNSUN-25" value="Pre-Executor with override=false" style="text;html=1;strokeColor=none;fillColor=none;align=center;verticalAlign=middle;whiteSpace=wrap;rounded=0;" vertex="1" parent="d2gbGRnM_CAUKAUHNSUN-16">
          <mxGeometry width="200" height="30" as="geometry" />
        </mxCell>
        <mxCell id="d2gbGRnM_CAUKAUHNSUN-26" value="Pre-Flow" style="text;html=1;strokeColor=none;fillColor=none;align=center;verticalAlign=middle;whiteSpace=wrap;rounded=0;" vertex="1" parent="d2gbGRnM_CAUKAUHNSUN-16">
          <mxGeometry x="128.75" y="30" width="60" height="30" as="geometry" />
        </mxCell>
        <mxCell id="d2gbGRnM_CAUKAUHNSUN-27" value="" style="endArrow=classic;html=1;rounded=0;exitX=0.5;exitY=1;exitDx=0;exitDy=0;entryX=0;entryY=0.5;entryDx=0;entryDy=0;" edge="1" parent="d2gbGRnM_CAUKAUHNSUN-16" source="d2gbGRnM_CAUKAUHNSUN-18" target="d2gbGRnM_CAUKAUHNSUN-22">
          <mxGeometry width="50" height="50" relative="1" as="geometry">
            <mxPoint x="390" y="340" as="sourcePoint" />
            <mxPoint x="440" y="290" as="targetPoint" />
            <Array as="points">
              <mxPoint x="115" y="120" />
              <mxPoint x="230" y="120" />
              <mxPoint x="230" y="79" />
            </Array>
          </mxGeometry>
        </mxCell>
        <mxCell id="d2gbGRnM_CAUKAUHNSUN-28" value="FR2" style="ellipse;whiteSpace=wrap;html=1;fillColor=#f8cecc;strokeColor=#b85450;" vertex="1" parent="d2gbGRnM_CAUKAUHNSUN-16">
          <mxGeometry x="436.25" y="38.75" width="80" height="80" as="geometry" />
        </mxCell>
        <mxCell id="d2gbGRnM_CAUKAUHNSUN-29" value="" style="edgeStyle=orthogonalEdgeStyle;rounded=0;orthogonalLoop=1;jettySize=auto;html=1;" edge="1" parent="d2gbGRnM_CAUKAUHNSUN-16" source="d2gbGRnM_CAUKAUHNSUN-24" target="d2gbGRnM_CAUKAUHNSUN-28">
          <mxGeometry relative="1" as="geometry" />
        </mxCell>
        <mxCell id="d2gbGRnM_CAUKAUHNSUN-30" value="Main-Flow" style="text;html=1;strokeColor=none;fillColor=none;align=center;verticalAlign=middle;whiteSpace=wrap;rounded=0;" vertex="1" parent="d2gbGRnM_CAUKAUHNSUN-16">
          <mxGeometry x="288.75" y="30" width="60" height="30" as="geometry" />
        </mxCell>
        <mxCell id="d2gbGRnM_CAUKAUHNSUN-31" style="edgeStyle=orthogonalEdgeStyle;rounded=0;orthogonalLoop=1;jettySize=auto;html=1;entryX=0.5;entryY=0;entryDx=0;entryDy=0;" edge="1" parent="d2gbGRnM_CAUKAUHNSUN-16" source="d2gbGRnM_CAUKAUHNSUN-32" target="d2gbGRnM_CAUKAUHNSUN-20">
          <mxGeometry relative="1" as="geometry" />
        </mxCell>
        <mxCell id="d2gbGRnM_CAUKAUHNSUN-32" value="&lt;font color=&quot;#7ea6e0&quot;&gt;@OnResponse&lt;/font&gt;" style="text;html=1;strokeColor=none;fillColor=none;align=center;verticalAlign=middle;whiteSpace=wrap;rounded=0;" vertex="1" parent="d2gbGRnM_CAUKAUHNSUN-16">
          <mxGeometry x="169" y="-23.25" width="60" height="20" as="geometry" />
        </mxCell>
        <mxCell id="d2gbGRnM_CAUKAUHNSUN-33" style="edgeStyle=orthogonalEdgeStyle;rounded=0;orthogonalLoop=1;jettySize=auto;html=1;entryX=0.5;entryY=0;entryDx=0;entryDy=0;" edge="1" parent="d2gbGRnM_CAUKAUHNSUN-16" source="d2gbGRnM_CAUKAUHNSUN-34" target="d2gbGRnM_CAUKAUHNSUN-22">
          <mxGeometry relative="1" as="geometry" />
        </mxCell>
        <mxCell id="d2gbGRnM_CAUKAUHNSUN-34" value="&lt;font color=&quot;#7ea6e0&quot;&gt;@OnRequest&lt;/font&gt;" style="text;html=1;strokeColor=none;fillColor=none;align=center;verticalAlign=middle;whiteSpace=wrap;rounded=0;" vertex="1" parent="d2gbGRnM_CAUKAUHNSUN-16">
          <mxGeometry x="245" y="-3.25" width="60" height="23.25" as="geometry" />
        </mxCell>
        <mxCell id="d2gbGRnM_CAUKAUHNSUN-35" value="" style="group" vertex="1" connectable="0" parent="1">
          <mxGeometry x="313" y="1640" width="516.25" height="118.75" as="geometry" />
        </mxCell>
        <mxCell id="d2gbGRnM_CAUKAUHNSUN-36" value="" style="group" vertex="1" connectable="0" parent="d2gbGRnM_CAUKAUHNSUN-35">
          <mxGeometry x="100" y="60" width="117.5" height="37.5" as="geometry" />
        </mxCell>
        <mxCell id="d2gbGRnM_CAUKAUHNSUN-37" value="R1" style="ellipse;whiteSpace=wrap;html=1;aspect=fixed;fillColor=#dae8fc;strokeColor=#6c8ebf;" vertex="1" parent="d2gbGRnM_CAUKAUHNSUN-36">
          <mxGeometry y="3.75" width="30" height="30" as="geometry" />
        </mxCell>
        <mxCell id="d2gbGRnM_CAUKAUHNSUN-38" value="Flow1" style="rounded=0;whiteSpace=wrap;html=1;fillColor=#fff2cc;strokeColor=#d6b656;" vertex="1" parent="d2gbGRnM_CAUKAUHNSUN-36">
          <mxGeometry x="30" y="6.25" width="50" height="25" as="geometry" />
        </mxCell>
        <mxCell id="d2gbGRnM_CAUKAUHNSUN-39" value="FR1" style="ellipse;whiteSpace=wrap;html=1;aspect=fixed;fillColor=#f8cecc;strokeColor=#b85450;" vertex="1" parent="d2gbGRnM_CAUKAUHNSUN-36">
          <mxGeometry x="80" width="37.5" height="37.5" as="geometry" />
        </mxCell>
        <mxCell id="d2gbGRnM_CAUKAUHNSUN-40" value="" style="group" vertex="1" connectable="0" parent="d2gbGRnM_CAUKAUHNSUN-35">
          <mxGeometry x="260" y="60" width="117.5" height="37.5" as="geometry" />
        </mxCell>
        <mxCell id="d2gbGRnM_CAUKAUHNSUN-41" value="FR1" style="ellipse;whiteSpace=wrap;html=1;aspect=fixed;fillColor=#dae8fc;strokeColor=#6c8ebf;" vertex="1" parent="d2gbGRnM_CAUKAUHNSUN-40">
          <mxGeometry y="3.75" width="30" height="30" as="geometry" />
        </mxCell>
        <mxCell id="d2gbGRnM_CAUKAUHNSUN-42" value="Flow2" style="rounded=0;whiteSpace=wrap;html=1;fillColor=#fff2cc;strokeColor=#d6b656;" vertex="1" parent="d2gbGRnM_CAUKAUHNSUN-40">
          <mxGeometry x="30" y="6.25" width="50" height="25" as="geometry" />
        </mxCell>
        <mxCell id="d2gbGRnM_CAUKAUHNSUN-43" value="FR2" style="ellipse;whiteSpace=wrap;html=1;aspect=fixed;fillColor=#f8cecc;strokeColor=#b85450;" vertex="1" parent="d2gbGRnM_CAUKAUHNSUN-40">
          <mxGeometry x="80" width="37.5" height="37.5" as="geometry" />
        </mxCell>
        <mxCell id="d2gbGRnM_CAUKAUHNSUN-44" value="Post-Executor with override=true" style="text;html=1;strokeColor=none;fillColor=none;align=center;verticalAlign=middle;whiteSpace=wrap;rounded=0;" vertex="1" parent="d2gbGRnM_CAUKAUHNSUN-35">
          <mxGeometry width="200" height="30" as="geometry" />
        </mxCell>
        <mxCell id="d2gbGRnM_CAUKAUHNSUN-45" value="Main-Flow" style="text;html=1;strokeColor=none;fillColor=none;align=center;verticalAlign=middle;whiteSpace=wrap;rounded=0;" vertex="1" parent="d2gbGRnM_CAUKAUHNSUN-35">
          <mxGeometry x="128.75" y="30" width="60" height="30" as="geometry" />
        </mxCell>
        <mxCell id="d2gbGRnM_CAUKAUHNSUN-46" value="" style="endArrow=classic;html=1;rounded=0;exitX=1;exitY=0.5;exitDx=0;exitDy=0;entryX=0;entryY=0.5;entryDx=0;entryDy=0;" edge="1" parent="d2gbGRnM_CAUKAUHNSUN-35" source="d2gbGRnM_CAUKAUHNSUN-39" target="d2gbGRnM_CAUKAUHNSUN-41">
          <mxGeometry width="50" height="50" relative="1" as="geometry">
            <mxPoint x="390" y="340" as="sourcePoint" />
            <mxPoint x="440" y="290" as="targetPoint" />
          </mxGeometry>
        </mxCell>
        <mxCell id="d2gbGRnM_CAUKAUHNSUN-47" value="FR2" style="ellipse;whiteSpace=wrap;html=1;fillColor=#f8cecc;strokeColor=#b85450;" vertex="1" parent="d2gbGRnM_CAUKAUHNSUN-35">
          <mxGeometry x="436.25" y="38.75" width="80" height="80" as="geometry" />
        </mxCell>
        <mxCell id="d2gbGRnM_CAUKAUHNSUN-48" value="" style="edgeStyle=orthogonalEdgeStyle;rounded=0;orthogonalLoop=1;jettySize=auto;html=1;" edge="1" parent="d2gbGRnM_CAUKAUHNSUN-35" source="d2gbGRnM_CAUKAUHNSUN-43" target="d2gbGRnM_CAUKAUHNSUN-47">
          <mxGeometry relative="1" as="geometry" />
        </mxCell>
        <mxCell id="d2gbGRnM_CAUKAUHNSUN-49" value="Post-Flow" style="text;html=1;strokeColor=none;fillColor=none;align=center;verticalAlign=middle;whiteSpace=wrap;rounded=0;" vertex="1" parent="d2gbGRnM_CAUKAUHNSUN-35">
          <mxGeometry x="288.75" y="30" width="60" height="30" as="geometry" />
        </mxCell>
        <mxCell id="d2gbGRnM_CAUKAUHNSUN-50" value="" style="group" vertex="1" connectable="0" parent="1">
          <mxGeometry x="313" y="1800" width="516.25" height="118.75" as="geometry" />
        </mxCell>
        <mxCell id="d2gbGRnM_CAUKAUHNSUN-51" value="" style="group" vertex="1" connectable="0" parent="d2gbGRnM_CAUKAUHNSUN-50">
          <mxGeometry x="100" y="60" width="117.5" height="37.5" as="geometry" />
        </mxCell>
        <mxCell id="d2gbGRnM_CAUKAUHNSUN-52" value="R1" style="ellipse;whiteSpace=wrap;html=1;aspect=fixed;fillColor=#dae8fc;strokeColor=#6c8ebf;" vertex="1" parent="d2gbGRnM_CAUKAUHNSUN-51">
          <mxGeometry y="3.75" width="30" height="30" as="geometry" />
        </mxCell>
        <mxCell id="d2gbGRnM_CAUKAUHNSUN-53" value="Flow1" style="rounded=0;whiteSpace=wrap;html=1;fillColor=#fff2cc;strokeColor=#d6b656;" vertex="1" parent="d2gbGRnM_CAUKAUHNSUN-51">
          <mxGeometry x="30" y="6.25" width="50" height="25" as="geometry" />
        </mxCell>
        <mxCell id="d2gbGRnM_CAUKAUHNSUN-54" value="FR1" style="ellipse;whiteSpace=wrap;html=1;aspect=fixed;fillColor=#f8cecc;strokeColor=#b85450;" vertex="1" parent="d2gbGRnM_CAUKAUHNSUN-51">
          <mxGeometry x="80" width="37.5" height="37.5" as="geometry" />
        </mxCell>
        <mxCell id="d2gbGRnM_CAUKAUHNSUN-55" value="" style="group" vertex="1" connectable="0" parent="d2gbGRnM_CAUKAUHNSUN-50">
          <mxGeometry x="260" y="60" width="117.5" height="37.5" as="geometry" />
        </mxCell>
        <mxCell id="d2gbGRnM_CAUKAUHNSUN-56" value="R1" style="ellipse;whiteSpace=wrap;html=1;aspect=fixed;fillColor=#dae8fc;strokeColor=#6c8ebf;" vertex="1" parent="d2gbGRnM_CAUKAUHNSUN-55">
          <mxGeometry y="3.75" width="30" height="30" as="geometry" />
        </mxCell>
        <mxCell id="d2gbGRnM_CAUKAUHNSUN-57" value="Flow2" style="rounded=0;whiteSpace=wrap;html=1;fillColor=#fff2cc;strokeColor=#d6b656;" vertex="1" parent="d2gbGRnM_CAUKAUHNSUN-55">
          <mxGeometry x="30" y="6.25" width="50" height="25" as="geometry" />
        </mxCell>
        <mxCell id="d2gbGRnM_CAUKAUHNSUN-58" value="FR2" style="ellipse;whiteSpace=wrap;html=1;aspect=fixed;fillColor=#f8cecc;strokeColor=#b85450;" vertex="1" parent="d2gbGRnM_CAUKAUHNSUN-55">
          <mxGeometry x="80" width="37.5" height="37.5" as="geometry" />
        </mxCell>
        <mxCell id="d2gbGRnM_CAUKAUHNSUN-59" value="Post-Executor with override=false" style="text;html=1;strokeColor=none;fillColor=none;align=center;verticalAlign=middle;whiteSpace=wrap;rounded=0;" vertex="1" parent="d2gbGRnM_CAUKAUHNSUN-50">
          <mxGeometry width="200" height="30" as="geometry" />
        </mxCell>
        <mxCell id="d2gbGRnM_CAUKAUHNSUN-60" value="Main-Flow" style="text;html=1;strokeColor=none;fillColor=none;align=center;verticalAlign=middle;whiteSpace=wrap;rounded=0;" vertex="1" parent="d2gbGRnM_CAUKAUHNSUN-50">
          <mxGeometry x="128.75" y="30" width="60" height="30" as="geometry" />
        </mxCell>
        <mxCell id="d2gbGRnM_CAUKAUHNSUN-61" value="" style="endArrow=classic;html=1;rounded=0;exitX=0.5;exitY=1;exitDx=0;exitDy=0;entryX=0;entryY=0.5;entryDx=0;entryDy=0;" edge="1" parent="d2gbGRnM_CAUKAUHNSUN-50" source="d2gbGRnM_CAUKAUHNSUN-52" target="d2gbGRnM_CAUKAUHNSUN-56">
          <mxGeometry width="50" height="50" relative="1" as="geometry">
            <mxPoint x="390" y="340" as="sourcePoint" />
            <mxPoint x="440" y="290" as="targetPoint" />
            <Array as="points">
              <mxPoint x="115" y="120" />
              <mxPoint x="230" y="120" />
              <mxPoint x="230" y="79" />
            </Array>
          </mxGeometry>
        </mxCell>
        <mxCell id="d2gbGRnM_CAUKAUHNSUN-62" value="FR2" style="ellipse;whiteSpace=wrap;html=1;fillColor=#f8cecc;strokeColor=#b85450;" vertex="1" parent="d2gbGRnM_CAUKAUHNSUN-50">
          <mxGeometry x="436.25" y="38.75" width="80" height="80" as="geometry" />
        </mxCell>
        <mxCell id="d2gbGRnM_CAUKAUHNSUN-63" value="" style="edgeStyle=orthogonalEdgeStyle;rounded=0;orthogonalLoop=1;jettySize=auto;html=1;" edge="1" parent="d2gbGRnM_CAUKAUHNSUN-50" source="d2gbGRnM_CAUKAUHNSUN-58" target="d2gbGRnM_CAUKAUHNSUN-62">
          <mxGeometry relative="1" as="geometry" />
        </mxCell>
        <mxCell id="d2gbGRnM_CAUKAUHNSUN-64" value="Post-Flow" style="text;html=1;strokeColor=none;fillColor=none;align=center;verticalAlign=middle;whiteSpace=wrap;rounded=0;" vertex="1" parent="d2gbGRnM_CAUKAUHNSUN-50">
          <mxGeometry x="288.75" y="30" width="60" height="30" as="geometry" />
        </mxCell>
        <mxCell id="d2gbGRnM_CAUKAUHNSUN-65" value="" style="group" vertex="1" connectable="0" parent="1">
          <mxGeometry x="421.25" y="2850" width="117.5" height="37.5" as="geometry" />
        </mxCell>
        <mxCell id="d2gbGRnM_CAUKAUHNSUN-66" value="R1" style="ellipse;whiteSpace=wrap;html=1;aspect=fixed;fillColor=#dae8fc;strokeColor=#6c8ebf;" vertex="1" parent="d2gbGRnM_CAUKAUHNSUN-65">
          <mxGeometry y="3.75" width="30" height="30" as="geometry" />
        </mxCell>
        <mxCell id="d2gbGRnM_CAUKAUHNSUN-67" value="Flow1" style="rounded=0;whiteSpace=wrap;html=1;fillColor=#fff2cc;strokeColor=#d6b656;" vertex="1" parent="d2gbGRnM_CAUKAUHNSUN-65">
          <mxGeometry x="30" y="6.25" width="50" height="25" as="geometry" />
        </mxCell>
        <mxCell id="d2gbGRnM_CAUKAUHNSUN-68" value="FR1" style="ellipse;whiteSpace=wrap;html=1;aspect=fixed;fillColor=#f8cecc;strokeColor=#b85450;" vertex="1" parent="d2gbGRnM_CAUKAUHNSUN-65">
          <mxGeometry x="80" width="37.5" height="37.5" as="geometry" />
        </mxCell>
        <mxCell id="d2gbGRnM_CAUKAUHNSUN-69" value="" style="group" vertex="1" connectable="0" parent="1">
          <mxGeometry x="581.25" y="2850" width="117.5" height="37.5" as="geometry" />
        </mxCell>
        <mxCell id="d2gbGRnM_CAUKAUHNSUN-70" value="FR1" style="ellipse;whiteSpace=wrap;html=1;aspect=fixed;fillColor=#dae8fc;strokeColor=#6c8ebf;" vertex="1" parent="d2gbGRnM_CAUKAUHNSUN-69">
          <mxGeometry y="3.75" width="30" height="30" as="geometry" />
        </mxCell>
        <mxCell id="d2gbGRnM_CAUKAUHNSUN-71" value="Flow2" style="rounded=0;whiteSpace=wrap;html=1;fillColor=#fff2cc;strokeColor=#d6b656;" vertex="1" parent="d2gbGRnM_CAUKAUHNSUN-69">
          <mxGeometry x="30" y="6.25" width="50" height="25" as="geometry" />
        </mxCell>
        <mxCell id="d2gbGRnM_CAUKAUHNSUN-72" value="FR2" style="ellipse;whiteSpace=wrap;html=1;aspect=fixed;fillColor=#f8cecc;strokeColor=#b85450;" vertex="1" parent="d2gbGRnM_CAUKAUHNSUN-69">
          <mxGeometry x="80" width="37.5" height="37.5" as="geometry" />
        </mxCell>
        <mxCell id="d2gbGRnM_CAUKAUHNSUN-73" value="Credit decision with override=true" style="text;html=1;strokeColor=none;fillColor=none;align=center;verticalAlign=middle;whiteSpace=wrap;rounded=0;" vertex="1" parent="1">
          <mxGeometry x="311.25" y="2790" width="200" height="30" as="geometry" />
        </mxCell>
        <mxCell id="d2gbGRnM_CAUKAUHNSUN-74" value="request in DSOR" style="text;html=1;strokeColor=none;fillColor=none;align=center;verticalAlign=middle;whiteSpace=wrap;rounded=0;" vertex="1" parent="1">
          <mxGeometry x="450" y="2820" width="60" height="30" as="geometry" />
        </mxCell>
        <mxCell id="d2gbGRnM_CAUKAUHNSUN-75" value="Call FICO" style="text;html=1;strokeColor=none;fillColor=none;align=center;verticalAlign=middle;whiteSpace=wrap;rounded=0;" vertex="1" parent="1">
          <mxGeometry x="610" y="2820" width="60" height="30" as="geometry" />
        </mxCell>
        <mxCell id="d2gbGRnM_CAUKAUHNSUN-76" value="" style="group" vertex="1" connectable="0" parent="1">
          <mxGeometry x="740.25" y="2850" width="117.5" height="37.5" as="geometry" />
        </mxCell>
        <mxCell id="d2gbGRnM_CAUKAUHNSUN-77" value="FR2" style="ellipse;whiteSpace=wrap;html=1;aspect=fixed;fillColor=#dae8fc;strokeColor=#6c8ebf;" vertex="1" parent="d2gbGRnM_CAUKAUHNSUN-76">
          <mxGeometry y="3.75" width="30" height="30" as="geometry" />
        </mxCell>
        <mxCell id="d2gbGRnM_CAUKAUHNSUN-78" value="Flow3" style="rounded=0;whiteSpace=wrap;html=1;fillColor=#fff2cc;strokeColor=#d6b656;" vertex="1" parent="d2gbGRnM_CAUKAUHNSUN-76">
          <mxGeometry x="30" y="6.25" width="50" height="25" as="geometry" />
        </mxCell>
        <mxCell id="d2gbGRnM_CAUKAUHNSUN-79" value="FR3" style="ellipse;whiteSpace=wrap;html=1;aspect=fixed;fillColor=#f8cecc;strokeColor=#b85450;" vertex="1" parent="d2gbGRnM_CAUKAUHNSUN-76">
          <mxGeometry x="80" width="37.5" height="37.5" as="geometry" />
        </mxCell>
        <mxCell id="d2gbGRnM_CAUKAUHNSUN-80" value="response in DSOR" style="text;html=1;strokeColor=none;fillColor=none;align=center;verticalAlign=middle;whiteSpace=wrap;rounded=0;" vertex="1" parent="1">
          <mxGeometry x="769" y="2820" width="60" height="30" as="geometry" />
        </mxCell>
        <mxCell id="d2gbGRnM_CAUKAUHNSUN-81" style="edgeStyle=orthogonalEdgeStyle;rounded=0;orthogonalLoop=1;jettySize=auto;html=1;exitX=1;exitY=0.5;exitDx=0;exitDy=0;entryX=0;entryY=0.5;entryDx=0;entryDy=0;" edge="1" parent="1" source="d2gbGRnM_CAUKAUHNSUN-68" target="d2gbGRnM_CAUKAUHNSUN-70">
          <mxGeometry relative="1" as="geometry" />
        </mxCell>
        <mxCell id="d2gbGRnM_CAUKAUHNSUN-82" style="edgeStyle=orthogonalEdgeStyle;rounded=0;orthogonalLoop=1;jettySize=auto;html=1;exitX=1;exitY=0.5;exitDx=0;exitDy=0;entryX=0;entryY=0.5;entryDx=0;entryDy=0;" edge="1" parent="1" source="d2gbGRnM_CAUKAUHNSUN-72" target="d2gbGRnM_CAUKAUHNSUN-77">
          <mxGeometry relative="1" as="geometry">
            <mxPoint x="741.25" y="2850" as="targetPoint" />
          </mxGeometry>
        </mxCell>
        <mxCell id="d2gbGRnM_CAUKAUHNSUN-83" value="" style="group" vertex="1" connectable="0" parent="1">
          <mxGeometry x="431.25" y="3003" width="117.5" height="37.5" as="geometry" />
        </mxCell>
        <mxCell id="d2gbGRnM_CAUKAUHNSUN-84" value="R1" style="ellipse;whiteSpace=wrap;html=1;aspect=fixed;fillColor=#dae8fc;strokeColor=#6c8ebf;" vertex="1" parent="d2gbGRnM_CAUKAUHNSUN-83">
          <mxGeometry y="3.75" width="30" height="30" as="geometry" />
        </mxCell>
        <mxCell id="d2gbGRnM_CAUKAUHNSUN-85" value="Flow1" style="rounded=0;whiteSpace=wrap;html=1;fillColor=#fff2cc;strokeColor=#d6b656;" vertex="1" parent="d2gbGRnM_CAUKAUHNSUN-83">
          <mxGeometry x="30" y="6.25" width="50" height="25" as="geometry" />
        </mxCell>
        <mxCell id="d2gbGRnM_CAUKAUHNSUN-86" value="FR1" style="ellipse;whiteSpace=wrap;html=1;aspect=fixed;fillColor=#f8cecc;strokeColor=#b85450;" vertex="1" parent="d2gbGRnM_CAUKAUHNSUN-83">
          <mxGeometry x="80" width="37.5" height="37.5" as="geometry" />
        </mxCell>
        <mxCell id="d2gbGRnM_CAUKAUHNSUN-87" value="" style="group" vertex="1" connectable="0" parent="1">
          <mxGeometry x="591.25" y="3003" width="117.5" height="37.5" as="geometry" />
        </mxCell>
        <mxCell id="d2gbGRnM_CAUKAUHNSUN-88" style="edgeStyle=orthogonalEdgeStyle;rounded=0;orthogonalLoop=1;jettySize=auto;html=1;" edge="1" parent="d2gbGRnM_CAUKAUHNSUN-87" source="d2gbGRnM_CAUKAUHNSUN-89">
          <mxGeometry relative="1" as="geometry">
            <mxPoint x="160" y="18.75" as="targetPoint" />
            <Array as="points">
              <mxPoint x="15" y="57" />
              <mxPoint x="140" y="57" />
              <mxPoint x="140" y="19" />
            </Array>
          </mxGeometry>
        </mxCell>
        <mxCell id="d2gbGRnM_CAUKAUHNSUN-89" value="FR1" style="ellipse;whiteSpace=wrap;html=1;aspect=fixed;fillColor=#dae8fc;strokeColor=#6c8ebf;" vertex="1" parent="d2gbGRnM_CAUKAUHNSUN-87">
          <mxGeometry y="3.75" width="30" height="30" as="geometry" />
        </mxCell>
        <mxCell id="d2gbGRnM_CAUKAUHNSUN-90" value="Flow2" style="rounded=0;whiteSpace=wrap;html=1;fillColor=#fff2cc;strokeColor=#d6b656;" vertex="1" parent="d2gbGRnM_CAUKAUHNSUN-87">
          <mxGeometry x="30" y="6.25" width="50" height="25" as="geometry" />
        </mxCell>
        <mxCell id="d2gbGRnM_CAUKAUHNSUN-91" value="FR2" style="ellipse;whiteSpace=wrap;html=1;aspect=fixed;fillColor=#f8cecc;strokeColor=#b85450;" vertex="1" parent="d2gbGRnM_CAUKAUHNSUN-87">
          <mxGeometry x="80" width="37.5" height="37.5" as="geometry" />
        </mxCell>
        <mxCell id="d2gbGRnM_CAUKAUHNSUN-92" value="Credit decision with post-executor override=false" style="text;html=1;strokeColor=none;fillColor=none;align=center;verticalAlign=middle;whiteSpace=wrap;rounded=0;" vertex="1" parent="1">
          <mxGeometry x="310" y="2943" width="290" height="30" as="geometry" />
        </mxCell>
        <mxCell id="d2gbGRnM_CAUKAUHNSUN-93" value="request in DSOR" style="text;html=1;strokeColor=none;fillColor=none;align=center;verticalAlign=middle;whiteSpace=wrap;rounded=0;" vertex="1" parent="1">
          <mxGeometry x="460" y="2973" width="60" height="30" as="geometry" />
        </mxCell>
        <mxCell id="d2gbGRnM_CAUKAUHNSUN-94" value="Call FICO" style="text;html=1;strokeColor=none;fillColor=none;align=center;verticalAlign=middle;whiteSpace=wrap;rounded=0;" vertex="1" parent="1">
          <mxGeometry x="620" y="2973" width="60" height="30" as="geometry" />
        </mxCell>
        <mxCell id="d2gbGRnM_CAUKAUHNSUN-95" value="" style="group" vertex="1" connectable="0" parent="1">
          <mxGeometry x="750.25" y="3003" width="117.5" height="37.5" as="geometry" />
        </mxCell>
        <mxCell id="d2gbGRnM_CAUKAUHNSUN-96" value="FR1" style="ellipse;whiteSpace=wrap;html=1;aspect=fixed;fillColor=#dae8fc;strokeColor=#6c8ebf;" vertex="1" parent="d2gbGRnM_CAUKAUHNSUN-95">
          <mxGeometry y="3.75" width="30" height="30" as="geometry" />
        </mxCell>
        <mxCell id="d2gbGRnM_CAUKAUHNSUN-97" value="Flow3" style="rounded=0;whiteSpace=wrap;html=1;fillColor=#fff2cc;strokeColor=#d6b656;" vertex="1" parent="d2gbGRnM_CAUKAUHNSUN-95">
          <mxGeometry x="30" y="6.25" width="50" height="25" as="geometry" />
        </mxCell>
        <mxCell id="d2gbGRnM_CAUKAUHNSUN-98" value="FR3" style="ellipse;whiteSpace=wrap;html=1;aspect=fixed;fillColor=#f8cecc;strokeColor=#b85450;" vertex="1" parent="d2gbGRnM_CAUKAUHNSUN-95">
          <mxGeometry x="80" width="37.5" height="37.5" as="geometry" />
        </mxCell>
        <mxCell id="d2gbGRnM_CAUKAUHNSUN-99" value="response in DSOR" style="text;html=1;strokeColor=none;fillColor=none;align=center;verticalAlign=middle;whiteSpace=wrap;rounded=0;" vertex="1" parent="1">
          <mxGeometry x="779" y="2973" width="60" height="30" as="geometry" />
        </mxCell>
        <mxCell id="d2gbGRnM_CAUKAUHNSUN-100" style="edgeStyle=orthogonalEdgeStyle;rounded=0;orthogonalLoop=1;jettySize=auto;html=1;exitX=1;exitY=0.5;exitDx=0;exitDy=0;entryX=0;entryY=0.5;entryDx=0;entryDy=0;" edge="1" parent="1" source="d2gbGRnM_CAUKAUHNSUN-86" target="d2gbGRnM_CAUKAUHNSUN-89">
          <mxGeometry relative="1" as="geometry" />
        </mxCell>
        <mxCell id="d2gbGRnM_CAUKAUHNSUN-101" value="" style="group;labelBackgroundColor=none;fillColor=none;" vertex="1" connectable="0" parent="1">
          <mxGeometry x="313" y="2345" width="441.75" height="127.5" as="geometry" />
        </mxCell>
        <mxCell id="d2gbGRnM_CAUKAUHNSUN-102" value="&lt;b style=&quot;&quot;&gt;&lt;u&gt;Data Sourcing executor flow&lt;/u&gt;&lt;/b&gt;" style="text;html=1;strokeColor=none;fillColor=none;align=center;verticalAlign=middle;whiteSpace=wrap;rounded=0;" vertex="1" parent="d2gbGRnM_CAUKAUHNSUN-101">
          <mxGeometry width="200" height="30" as="geometry" />
        </mxCell>
        <mxCell id="d2gbGRnM_CAUKAUHNSUN-103" value="" style="group;shadow=1;" vertex="1" connectable="0" parent="d2gbGRnM_CAUKAUHNSUN-101">
          <mxGeometry x="164.25" y="90" width="117.5" height="37.5" as="geometry" />
        </mxCell>
        <mxCell id="d2gbGRnM_CAUKAUHNSUN-104" value="R1" style="ellipse;whiteSpace=wrap;html=1;aspect=fixed;fillColor=#dae8fc;strokeColor=#6c8ebf;shadow=1;" vertex="1" parent="d2gbGRnM_CAUKAUHNSUN-103">
          <mxGeometry y="3.75" width="30" height="30" as="geometry" />
        </mxCell>
        <mxCell id="d2gbGRnM_CAUKAUHNSUN-105" value="Flow2" style="rounded=0;whiteSpace=wrap;html=1;fillColor=#fff2cc;strokeColor=#d6b656;shadow=1;" vertex="1" parent="d2gbGRnM_CAUKAUHNSUN-103">
          <mxGeometry x="30" y="6.25" width="50" height="25" as="geometry" />
        </mxCell>
        <mxCell id="d2gbGRnM_CAUKAUHNSUN-106" value="FR2" style="ellipse;whiteSpace=wrap;html=1;aspect=fixed;fillColor=#f8cecc;strokeColor=#b85450;shadow=1;" vertex="1" parent="d2gbGRnM_CAUKAUHNSUN-103">
          <mxGeometry x="80" width="37.5" height="37.5" as="geometry" />
        </mxCell>
        <mxCell id="d2gbGRnM_CAUKAUHNSUN-107" value="" style="group;shadow=1;" vertex="1" connectable="0" parent="d2gbGRnM_CAUKAUHNSUN-101">
          <mxGeometry x="324.25" y="90" width="117.5" height="37.5" as="geometry" />
        </mxCell>
        <mxCell id="d2gbGRnM_CAUKAUHNSUN-108" value="R1" style="ellipse;whiteSpace=wrap;html=1;aspect=fixed;fillColor=#dae8fc;strokeColor=#6c8ebf;shadow=1;" vertex="1" parent="d2gbGRnM_CAUKAUHNSUN-107">
          <mxGeometry y="3.75" width="30" height="30" as="geometry" />
        </mxCell>
        <mxCell id="d2gbGRnM_CAUKAUHNSUN-109" value="Flow3" style="rounded=0;whiteSpace=wrap;html=1;fillColor=#fff2cc;strokeColor=#d6b656;shadow=1;" vertex="1" parent="d2gbGRnM_CAUKAUHNSUN-107">
          <mxGeometry x="30" y="6.25" width="50" height="25" as="geometry" />
        </mxCell>
        <mxCell id="d2gbGRnM_CAUKAUHNSUN-110" value="FR3" style="ellipse;whiteSpace=wrap;html=1;aspect=fixed;fillColor=#f8cecc;strokeColor=#b85450;shadow=1;" vertex="1" parent="d2gbGRnM_CAUKAUHNSUN-107">
          <mxGeometry x="80" width="37.5" height="37.5" as="geometry" />
        </mxCell>
        <mxCell id="d2gbGRnM_CAUKAUHNSUN-111" value="Call SOE" style="text;html=1;strokeColor=none;fillColor=none;align=center;verticalAlign=middle;whiteSpace=wrap;rounded=0;" vertex="1" parent="d2gbGRnM_CAUKAUHNSUN-101">
          <mxGeometry x="193" y="60" width="60" height="30" as="geometry" />
        </mxCell>
        <mxCell id="d2gbGRnM_CAUKAUHNSUN-112" value="Call nCino" style="text;html=1;strokeColor=none;fillColor=none;align=center;verticalAlign=middle;whiteSpace=wrap;rounded=0;" vertex="1" parent="d2gbGRnM_CAUKAUHNSUN-101">
          <mxGeometry x="353" y="60" width="60" height="30" as="geometry" />
        </mxCell>
        <mxCell id="d2gbGRnM_CAUKAUHNSUN-113" value="" style="group;shadow=1;" vertex="1" connectable="0" parent="d2gbGRnM_CAUKAUHNSUN-101">
          <mxGeometry x="13" y="90" width="117.5" height="37.5" as="geometry" />
        </mxCell>
        <mxCell id="d2gbGRnM_CAUKAUHNSUN-114" value="R1" style="ellipse;whiteSpace=wrap;html=1;aspect=fixed;fillColor=#dae8fc;strokeColor=#6c8ebf;shadow=1;" vertex="1" parent="d2gbGRnM_CAUKAUHNSUN-113">
          <mxGeometry y="3.75" width="30" height="30" as="geometry" />
        </mxCell>
        <mxCell id="d2gbGRnM_CAUKAUHNSUN-115" value="Flow1" style="rounded=0;whiteSpace=wrap;html=1;fillColor=#b1ddf0;strokeColor=#10739e;shadow=1;" vertex="1" parent="d2gbGRnM_CAUKAUHNSUN-113">
          <mxGeometry x="30" y="6.25" width="50" height="25" as="geometry" />
        </mxCell>
        <mxCell id="d2gbGRnM_CAUKAUHNSUN-116" value="FR1" style="ellipse;whiteSpace=wrap;html=1;aspect=fixed;fillColor=#f8cecc;strokeColor=#b85450;shadow=1;" vertex="1" parent="d2gbGRnM_CAUKAUHNSUN-113">
          <mxGeometry x="80" width="37.5" height="37.5" as="geometry" />
        </mxCell>
        <mxCell id="d2gbGRnM_CAUKAUHNSUN-117" value="Initial BOM&lt;br&gt;prepration" style="text;html=1;strokeColor=none;fillColor=none;align=center;verticalAlign=middle;whiteSpace=wrap;rounded=0;shadow=1;" vertex="1" parent="d2gbGRnM_CAUKAUHNSUN-101">
          <mxGeometry x="30" y="60" width="68.25" height="30" as="geometry" />
        </mxCell>
        <mxCell id="d2gbGRnM_CAUKAUHNSUN-118" value="" style="group" vertex="1" connectable="0" parent="1">
          <mxGeometry x="313" y="2530" width="630.25" height="163" as="geometry" />
        </mxCell>
        <mxCell id="d2gbGRnM_CAUKAUHNSUN-119" value="" style="rounded=1;whiteSpace=wrap;html=1;fillColor=#f9f7ed;strokeColor=#36393d;opacity=60;glass=1;shadow=1;" vertex="1" parent="d2gbGRnM_CAUKAUHNSUN-118">
          <mxGeometry x="145" y="56" width="478" height="107" as="geometry" />
        </mxCell>
        <mxCell id="d2gbGRnM_CAUKAUHNSUN-120" value="&lt;b style=&quot;&quot;&gt;&lt;u&gt;Orchestration executor flow&lt;/u&gt;&lt;/b&gt;" style="text;html=1;strokeColor=none;fillColor=none;align=center;verticalAlign=middle;whiteSpace=wrap;rounded=0;" vertex="1" parent="d2gbGRnM_CAUKAUHNSUN-118">
          <mxGeometry width="200" height="30" as="geometry" />
        </mxCell>
        <mxCell id="d2gbGRnM_CAUKAUHNSUN-121" value="" style="group;shadow=1;" vertex="1" connectable="0" parent="d2gbGRnM_CAUKAUHNSUN-118">
          <mxGeometry x="164.25" y="90" width="117.5" height="37.5" as="geometry" />
        </mxCell>
        <mxCell id="d2gbGRnM_CAUKAUHNSUN-122" value="R1" style="ellipse;whiteSpace=wrap;html=1;aspect=fixed;fillColor=#dae8fc;strokeColor=#6c8ebf;shadow=1;" vertex="1" parent="d2gbGRnM_CAUKAUHNSUN-121">
          <mxGeometry y="3.75" width="30" height="30" as="geometry" />
        </mxCell>
        <mxCell id="d2gbGRnM_CAUKAUHNSUN-123" value="Flow2" style="rounded=0;whiteSpace=wrap;html=1;fillColor=#fff2cc;strokeColor=#d6b656;shadow=1;" vertex="1" parent="d2gbGRnM_CAUKAUHNSUN-121">
          <mxGeometry x="30" y="6.25" width="50" height="25" as="geometry" />
        </mxCell>
        <mxCell id="d2gbGRnM_CAUKAUHNSUN-124" value="FR2" style="ellipse;whiteSpace=wrap;html=1;aspect=fixed;fillColor=#f8cecc;strokeColor=#b85450;shadow=1;" vertex="1" parent="d2gbGRnM_CAUKAUHNSUN-121">
          <mxGeometry x="80" width="37.5" height="37.5" as="geometry" />
        </mxCell>
        <mxCell id="d2gbGRnM_CAUKAUHNSUN-125" value="" style="group;shadow=1;" vertex="1" connectable="0" parent="d2gbGRnM_CAUKAUHNSUN-118">
          <mxGeometry x="324.25" y="90" width="117.5" height="37.5" as="geometry" />
        </mxCell>
        <mxCell id="d2gbGRnM_CAUKAUHNSUN-126" value="R1" style="ellipse;whiteSpace=wrap;html=1;aspect=fixed;fillColor=#dae8fc;strokeColor=#6c8ebf;shadow=1;" vertex="1" parent="d2gbGRnM_CAUKAUHNSUN-125">
          <mxGeometry y="14.75" width="30" height="30" as="geometry" />
        </mxCell>
        <mxCell id="d2gbGRnM_CAUKAUHNSUN-127" value="Flow3" style="rounded=0;whiteSpace=wrap;html=1;fillColor=#fff2cc;strokeColor=#d6b656;shadow=1;" vertex="1" parent="d2gbGRnM_CAUKAUHNSUN-125">
          <mxGeometry x="30" y="6.25" width="50" height="25" as="geometry" />
        </mxCell>
        <mxCell id="d2gbGRnM_CAUKAUHNSUN-128" value="FR3" style="ellipse;whiteSpace=wrap;html=1;aspect=fixed;fillColor=#f8cecc;strokeColor=#b85450;shadow=1;" vertex="1" parent="d2gbGRnM_CAUKAUHNSUN-125">
          <mxGeometry x="80" width="37.5" height="37.5" as="geometry" />
        </mxCell>
        <mxCell id="d2gbGRnM_CAUKAUHNSUN-129" value="Call Data Sourcing" style="text;html=1;strokeColor=none;fillColor=none;align=center;verticalAlign=middle;whiteSpace=wrap;rounded=0;" vertex="1" parent="d2gbGRnM_CAUKAUHNSUN-118">
          <mxGeometry x="193" y="60" width="60" height="30" as="geometry" />
        </mxCell>
        <mxCell id="d2gbGRnM_CAUKAUHNSUN-130" value="post-executor-override:false" style="edgeStyle=orthogonalEdgeStyle;rounded=0;orthogonalLoop=1;jettySize=auto;html=1;exitX=0.5;exitY=1;exitDx=0;exitDy=0;entryX=0;entryY=0.5;entryDx=0;entryDy=0;" edge="1" parent="d2gbGRnM_CAUKAUHNSUN-118" source="d2gbGRnM_CAUKAUHNSUN-126" target="d2gbGRnM_CAUKAUHNSUN-133">
          <mxGeometry relative="1" as="geometry">
            <mxPoint x="484.25" y="109" as="targetPoint" />
            <Array as="points">
              <mxPoint x="339.25" y="150" />
              <mxPoint x="454.25" y="150" />
              <mxPoint x="454.25" y="120" />
            </Array>
          </mxGeometry>
        </mxCell>
        <mxCell id="d2gbGRnM_CAUKAUHNSUN-131" value="Call Credit Decisioning" style="text;html=1;strokeColor=none;fillColor=none;align=center;verticalAlign=middle;whiteSpace=wrap;rounded=0;" vertex="1" parent="d2gbGRnM_CAUKAUHNSUN-118">
          <mxGeometry x="353" y="60" width="60" height="30" as="geometry" />
        </mxCell>
        <mxCell id="d2gbGRnM_CAUKAUHNSUN-132" value="" style="group;shadow=1;" vertex="1" connectable="0" parent="d2gbGRnM_CAUKAUHNSUN-118">
          <mxGeometry x="483.25" y="90" width="117.5" height="37.5" as="geometry" />
        </mxCell>
        <mxCell id="d2gbGRnM_CAUKAUHNSUN-133" value="R1" style="ellipse;whiteSpace=wrap;html=1;aspect=fixed;fillColor=#dae8fc;strokeColor=#6c8ebf;shadow=1;" vertex="1" parent="d2gbGRnM_CAUKAUHNSUN-132">
          <mxGeometry y="14.75" width="30" height="30" as="geometry" />
        </mxCell>
        <mxCell id="d2gbGRnM_CAUKAUHNSUN-134" value="Flow4" style="rounded=0;whiteSpace=wrap;html=1;fillColor=#d5e8d4;strokeColor=#82b366;shadow=1;" vertex="1" parent="d2gbGRnM_CAUKAUHNSUN-132">
          <mxGeometry x="30" y="6.25" width="50" height="25" as="geometry" />
        </mxCell>
        <mxCell id="d2gbGRnM_CAUKAUHNSUN-135" value="FR4" style="ellipse;whiteSpace=wrap;html=1;aspect=fixed;fillColor=#f8cecc;strokeColor=#b85450;shadow=1;" vertex="1" parent="d2gbGRnM_CAUKAUHNSUN-132">
          <mxGeometry x="80" width="37.5" height="37.5" as="geometry" />
        </mxCell>
        <mxCell id="d2gbGRnM_CAUKAUHNSUN-136" value="FR3" style="ellipse;whiteSpace=wrap;html=1;aspect=fixed;fillColor=#f8cecc;strokeColor=#b85450;shadow=1;" vertex="1" parent="d2gbGRnM_CAUKAUHNSUN-132">
          <mxGeometry y="-9" width="30" height="30" as="geometry" />
        </mxCell>
        <mxCell id="d2gbGRnM_CAUKAUHNSUN-137" value="Response in DSOR" style="text;html=1;strokeColor=none;fillColor=none;align=center;verticalAlign=middle;whiteSpace=wrap;rounded=0;" vertex="1" parent="d2gbGRnM_CAUKAUHNSUN-118">
          <mxGeometry x="512" y="60" width="60" height="30" as="geometry" />
        </mxCell>
        <mxCell id="d2gbGRnM_CAUKAUHNSUN-138" style="edgeStyle=orthogonalEdgeStyle;rounded=0;orthogonalLoop=1;jettySize=auto;html=1;entryX=0.5;entryY=0;entryDx=0;entryDy=0;" edge="1" parent="d2gbGRnM_CAUKAUHNSUN-118" source="d2gbGRnM_CAUKAUHNSUN-139" target="d2gbGRnM_CAUKAUHNSUN-136">
          <mxGeometry relative="1" as="geometry" />
        </mxCell>
        <mxCell id="d2gbGRnM_CAUKAUHNSUN-139" value="RequestOverrideTransformer" style="text;html=1;strokeColor=none;fillColor=none;align=center;verticalAlign=middle;whiteSpace=wrap;rounded=0;" vertex="1" parent="d2gbGRnM_CAUKAUHNSUN-118">
          <mxGeometry x="421.5" width="152.5" height="30" as="geometry" />
        </mxCell>
        <mxCell id="d2gbGRnM_CAUKAUHNSUN-140" value="&lt;font color=&quot;#ff6666&quot;&gt;&lt;span style=&quot;font-size: 11px;&quot;&gt;For using FR3 &amp;amp; R1 to create entity&lt;/span&gt;&lt;/font&gt;" style="text;html=1;strokeColor=none;fillColor=none;align=left;verticalAlign=middle;whiteSpace=wrap;rounded=0;" vertex="1" parent="d2gbGRnM_CAUKAUHNSUN-118">
          <mxGeometry x="501.25" y="23" width="131" height="30" as="geometry" />
        </mxCell>
        <mxCell id="d2gbGRnM_CAUKAUHNSUN-141" value="" style="group;shadow=1;" vertex="1" connectable="0" parent="d2gbGRnM_CAUKAUHNSUN-118">
          <mxGeometry x="13" y="90" width="117.5" height="37.5" as="geometry" />
        </mxCell>
        <mxCell id="d2gbGRnM_CAUKAUHNSUN-142" value="R1" style="ellipse;whiteSpace=wrap;html=1;aspect=fixed;fillColor=#dae8fc;strokeColor=#6c8ebf;shadow=1;" vertex="1" parent="d2gbGRnM_CAUKAUHNSUN-141">
          <mxGeometry y="3.75" width="30" height="30" as="geometry" />
        </mxCell>
        <mxCell id="d2gbGRnM_CAUKAUHNSUN-143" value="Flow1" style="rounded=0;whiteSpace=wrap;html=1;fillColor=#d5e8d4;strokeColor=#82b366;shadow=1;" vertex="1" parent="d2gbGRnM_CAUKAUHNSUN-141">
          <mxGeometry x="30" y="6.25" width="50" height="25" as="geometry" />
        </mxCell>
        <mxCell id="d2gbGRnM_CAUKAUHNSUN-144" value="FR1" style="ellipse;whiteSpace=wrap;html=1;aspect=fixed;fillColor=#f8cecc;strokeColor=#b85450;shadow=1;" vertex="1" parent="d2gbGRnM_CAUKAUHNSUN-141">
          <mxGeometry x="80" width="37.5" height="37.5" as="geometry" />
        </mxCell>
        <mxCell id="d2gbGRnM_CAUKAUHNSUN-145" value="Request &lt;br&gt;in DSOR" style="text;html=1;strokeColor=none;fillColor=none;align=center;verticalAlign=middle;whiteSpace=wrap;rounded=0;shadow=1;" vertex="1" parent="d2gbGRnM_CAUKAUHNSUN-118">
          <mxGeometry x="41.75" y="60" width="60" height="30" as="geometry" />
        </mxCell>
        <mxCell id="d2gbGRnM_CAUKAUHNSUN-146" value="FR2" style="ellipse;whiteSpace=wrap;html=1;aspect=fixed;fillColor=#f8cecc;strokeColor=#b85450;shadow=1;" vertex="1" parent="d2gbGRnM_CAUKAUHNSUN-118">
          <mxGeometry x="323.25" y="80.75" width="30" height="30" as="geometry" />
        </mxCell>
        <mxCell id="d2gbGRnM_CAUKAUHNSUN-147" style="edgeStyle=orthogonalEdgeStyle;rounded=0;orthogonalLoop=1;jettySize=auto;html=1;exitX=1;exitY=0.5;exitDx=0;exitDy=0;entryX=0;entryY=0.5;entryDx=0;entryDy=0;" edge="1" parent="d2gbGRnM_CAUKAUHNSUN-118" source="d2gbGRnM_CAUKAUHNSUN-124" target="d2gbGRnM_CAUKAUHNSUN-146">
          <mxGeometry relative="1" as="geometry" />
        </mxCell>
        <mxCell id="d2gbGRnM_CAUKAUHNSUN-148" value="pre-executor-override:false" style="edgeStyle=orthogonalEdgeStyle;rounded=0;orthogonalLoop=1;jettySize=auto;html=1;exitX=0.5;exitY=1;exitDx=0;exitDy=0;entryX=0;entryY=0.5;entryDx=0;entryDy=0;" edge="1" parent="d2gbGRnM_CAUKAUHNSUN-118" source="d2gbGRnM_CAUKAUHNSUN-122" target="d2gbGRnM_CAUKAUHNSUN-126">
          <mxGeometry relative="1" as="geometry">
            <Array as="points">
              <mxPoint x="179" y="150" />
              <mxPoint x="290" y="150" />
              <mxPoint x="290" y="120" />
            </Array>
          </mxGeometry>
        </mxCell>
        <mxCell id="d2gbGRnM_CAUKAUHNSUN-149" style="edgeStyle=orthogonalEdgeStyle;rounded=0;orthogonalLoop=1;jettySize=auto;html=1;entryX=0.5;entryY=0;entryDx=0;entryDy=0;" edge="1" parent="d2gbGRnM_CAUKAUHNSUN-118" source="d2gbGRnM_CAUKAUHNSUN-150" target="d2gbGRnM_CAUKAUHNSUN-146">
          <mxGeometry relative="1" as="geometry" />
        </mxCell>
        <mxCell id="d2gbGRnM_CAUKAUHNSUN-150" value="RequestOverrideTransformer" style="text;html=1;strokeColor=none;fillColor=none;align=center;verticalAlign=middle;whiteSpace=wrap;rounded=0;" vertex="1" parent="d2gbGRnM_CAUKAUHNSUN-118">
          <mxGeometry x="243.25" width="152.5" height="30" as="geometry" />
        </mxCell>
        <mxCell id="d2gbGRnM_CAUKAUHNSUN-151" value="&lt;font color=&quot;#ff6666&quot;&gt;&lt;span style=&quot;font-size: 11px;&quot;&gt;For using FR2 &amp;amp; R1 to send db field values with payload&lt;/span&gt;&lt;/font&gt;" style="text;html=1;strokeColor=none;fillColor=none;align=left;verticalAlign=middle;whiteSpace=wrap;rounded=0;" vertex="1" parent="d2gbGRnM_CAUKAUHNSUN-118">
          <mxGeometry x="322.5" y="20" width="152.5" height="30" as="geometry" />
        </mxCell>
        <mxCell id="d2gbGRnM_CAUKAUHNSUN-152" style="edgeStyle=orthogonalEdgeStyle;rounded=0;orthogonalLoop=1;jettySize=auto;html=1;exitX=1;exitY=0.5;exitDx=0;exitDy=0;entryX=0;entryY=0.5;entryDx=0;entryDy=0;" edge="1" parent="d2gbGRnM_CAUKAUHNSUN-118" source="d2gbGRnM_CAUKAUHNSUN-128" target="d2gbGRnM_CAUKAUHNSUN-136">
          <mxGeometry relative="1" as="geometry">
            <mxPoint x="484.25" y="90" as="targetPoint" />
          </mxGeometry>
        </mxCell>
        <mxCell id="d2gbGRnM_CAUKAUHNSUN-153" value="" style="group" vertex="1" connectable="0" parent="1">
          <mxGeometry x="310" y="2070" width="633.25" height="207" as="geometry" />
        </mxCell>
        <mxCell id="d2gbGRnM_CAUKAUHNSUN-154" value="" style="edgeStyle=orthogonalEdgeStyle;rounded=0;orthogonalLoop=1;jettySize=auto;html=1;" edge="1" parent="d2gbGRnM_CAUKAUHNSUN-153" source="d2gbGRnM_CAUKAUHNSUN-164">
          <mxGeometry relative="1" as="geometry">
            <mxPoint x="497.75" y="150" as="targetPoint" />
          </mxGeometry>
        </mxCell>
        <mxCell id="d2gbGRnM_CAUKAUHNSUN-155" value="RequestOverrideTransformer" style="text;html=1;strokeColor=none;fillColor=none;align=center;verticalAlign=middle;whiteSpace=wrap;rounded=0;container=0;" vertex="1" parent="d2gbGRnM_CAUKAUHNSUN-153">
          <mxGeometry x="274" width="152.5" height="30" as="geometry" />
        </mxCell>
        <mxCell id="d2gbGRnM_CAUKAUHNSUN-156" value="" style="rounded=1;whiteSpace=wrap;html=1;fillColor=#f9f7ed;strokeColor=#36393d;opacity=60;glass=1;shadow=1;container=0;" vertex="1" parent="d2gbGRnM_CAUKAUHNSUN-153">
          <mxGeometry x="144" y="100" width="478" height="107" as="geometry" />
        </mxCell>
        <mxCell id="d2gbGRnM_CAUKAUHNSUN-157" value="&lt;b style=&quot;&quot;&gt;&lt;u&gt;Credit decision executor flow&lt;/u&gt;&lt;/b&gt;" style="text;html=1;strokeColor=none;fillColor=none;align=center;verticalAlign=middle;whiteSpace=wrap;rounded=0;container=0;" vertex="1" parent="d2gbGRnM_CAUKAUHNSUN-153">
          <mxGeometry y="40" width="200" height="30" as="geometry" />
        </mxCell>
        <mxCell id="d2gbGRnM_CAUKAUHNSUN-158" value="JWT token" style="text;html=1;strokeColor=none;fillColor=none;align=center;verticalAlign=middle;whiteSpace=wrap;rounded=0;container=0;" vertex="1" parent="d2gbGRnM_CAUKAUHNSUN-153">
          <mxGeometry x="193" y="100" width="60" height="30" as="geometry" />
        </mxCell>
        <mxCell id="d2gbGRnM_CAUKAUHNSUN-159" value="Call FICO" style="text;html=1;strokeColor=none;fillColor=none;align=center;verticalAlign=middle;whiteSpace=wrap;rounded=0;container=0;" vertex="1" parent="d2gbGRnM_CAUKAUHNSUN-153">
          <mxGeometry x="353" y="100" width="60" height="30" as="geometry" />
        </mxCell>
        <mxCell id="d2gbGRnM_CAUKAUHNSUN-160" value="Response in DSOR" style="text;html=1;strokeColor=none;fillColor=none;align=center;verticalAlign=middle;whiteSpace=wrap;rounded=0;container=0;" vertex="1" parent="d2gbGRnM_CAUKAUHNSUN-153">
          <mxGeometry x="512" y="100" width="60" height="30" as="geometry" />
        </mxCell>
        <mxCell id="d2gbGRnM_CAUKAUHNSUN-161" style="edgeStyle=orthogonalEdgeStyle;rounded=0;orthogonalLoop=1;jettySize=auto;html=1;" edge="1" parent="d2gbGRnM_CAUKAUHNSUN-153" source="d2gbGRnM_CAUKAUHNSUN-162">
          <mxGeometry relative="1" as="geometry">
            <mxPoint x="263" y="130" as="targetPoint" />
          </mxGeometry>
        </mxCell>
        <mxCell id="d2gbGRnM_CAUKAUHNSUN-162" value="@OnResponse" style="text;html=1;strokeColor=none;fillColor=none;align=center;verticalAlign=middle;whiteSpace=wrap;rounded=0;container=0;" vertex="1" parent="d2gbGRnM_CAUKAUHNSUN-153">
          <mxGeometry x="209" y="40" width="109" height="30" as="geometry" />
        </mxCell>
        <mxCell id="d2gbGRnM_CAUKAUHNSUN-163" value="&lt;font color=&quot;#ff6666&quot; style=&quot;font-size: 11px;&quot;&gt;In AddEnrichHeader&lt;br&gt;For jwt header&lt;/font&gt;" style="text;html=1;strokeColor=none;fillColor=none;align=left;verticalAlign=middle;whiteSpace=wrap;rounded=0;container=0;" vertex="1" parent="d2gbGRnM_CAUKAUHNSUN-153">
          <mxGeometry x="268" y="64" width="110" height="30" as="geometry" />
        </mxCell>
        <mxCell id="d2gbGRnM_CAUKAUHNSUN-164" value="RequestOverrideTransformer" style="text;html=1;strokeColor=none;fillColor=none;align=center;verticalAlign=middle;whiteSpace=wrap;rounded=0;container=0;" vertex="1" parent="d2gbGRnM_CAUKAUHNSUN-153">
          <mxGeometry x="421.5" y="40" width="152.5" height="30" as="geometry" />
        </mxCell>
        <mxCell id="d2gbGRnM_CAUKAUHNSUN-165" value="&lt;font color=&quot;#ff6666&quot;&gt;&lt;span style=&quot;font-size: 11px;&quot;&gt;For using R1 &amp;amp; FR3 to create entity&lt;/span&gt;&lt;/font&gt;" style="text;html=1;strokeColor=none;fillColor=none;align=left;verticalAlign=middle;whiteSpace=wrap;rounded=0;container=0;" vertex="1" parent="d2gbGRnM_CAUKAUHNSUN-153">
          <mxGeometry x="502.25" y="63" width="131" height="30" as="geometry" />
        </mxCell>
        <mxCell id="d2gbGRnM_CAUKAUHNSUN-166" value="Request &lt;br&gt;in DSOR" style="text;html=1;strokeColor=none;fillColor=none;align=center;verticalAlign=middle;whiteSpace=wrap;rounded=0;shadow=1;container=0;" vertex="1" parent="d2gbGRnM_CAUKAUHNSUN-153">
          <mxGeometry x="41.75" y="100" width="60" height="30" as="geometry" />
        </mxCell>
        <mxCell id="d2gbGRnM_CAUKAUHNSUN-167" value="&lt;font color=&quot;#ff6666&quot;&gt;&lt;span style=&quot;font-size: 11px;&quot;&gt;Using R1 as FICO request&lt;/span&gt;&lt;/font&gt;" style="text;html=1;strokeColor=none;fillColor=none;align=left;verticalAlign=middle;whiteSpace=wrap;rounded=0;container=0;" vertex="1" parent="d2gbGRnM_CAUKAUHNSUN-153">
          <mxGeometry x="345" y="20" width="131" height="30" as="geometry" />
        </mxCell>
        <mxCell id="d2gbGRnM_CAUKAUHNSUN-168" value="R1" style="ellipse;whiteSpace=wrap;html=1;aspect=fixed;fillColor=#dae8fc;strokeColor=#6c8ebf;shadow=1;container=0;" vertex="1" parent="d2gbGRnM_CAUKAUHNSUN-153">
          <mxGeometry x="164.25" y="133.75" width="30" height="30" as="geometry" />
        </mxCell>
        <mxCell id="d2gbGRnM_CAUKAUHNSUN-169" value="Flow2" style="rounded=0;whiteSpace=wrap;html=1;fillColor=#fff2cc;strokeColor=#d6b656;shadow=1;container=0;" vertex="1" parent="d2gbGRnM_CAUKAUHNSUN-153">
          <mxGeometry x="194.25" y="136.25" width="50" height="25" as="geometry" />
        </mxCell>
        <mxCell id="d2gbGRnM_CAUKAUHNSUN-170" value="FR2" style="ellipse;whiteSpace=wrap;html=1;aspect=fixed;fillColor=#f8cecc;strokeColor=#b85450;shadow=1;container=0;" vertex="1" parent="d2gbGRnM_CAUKAUHNSUN-153">
          <mxGeometry x="244.25" y="130" width="37.5" height="37.5" as="geometry" />
        </mxCell>
        <mxCell id="d2gbGRnM_CAUKAUHNSUN-171" value="R1" style="ellipse;whiteSpace=wrap;html=1;aspect=fixed;fillColor=#dae8fc;strokeColor=#6c8ebf;shadow=1;container=0;" vertex="1" parent="d2gbGRnM_CAUKAUHNSUN-153">
          <mxGeometry x="324.25" y="133.75" width="30" height="30" as="geometry" />
        </mxCell>
        <mxCell id="d2gbGRnM_CAUKAUHNSUN-172" style="edgeStyle=orthogonalEdgeStyle;rounded=0;orthogonalLoop=1;jettySize=auto;html=1;exitX=0.433;exitY=0.933;exitDx=0;exitDy=0;exitPerimeter=0;" edge="1" parent="d2gbGRnM_CAUKAUHNSUN-153" source="d2gbGRnM_CAUKAUHNSUN-155" target="d2gbGRnM_CAUKAUHNSUN-171">
          <mxGeometry relative="1" as="geometry" />
        </mxCell>
        <mxCell id="d2gbGRnM_CAUKAUHNSUN-173" value="" style="endArrow=classic;html=1;rounded=0;exitX=0.5;exitY=1;exitDx=0;exitDy=0;entryX=0;entryY=0.5;entryDx=0;entryDy=0;" edge="1" parent="d2gbGRnM_CAUKAUHNSUN-153" source="d2gbGRnM_CAUKAUHNSUN-168" target="d2gbGRnM_CAUKAUHNSUN-171">
          <mxGeometry width="50" height="50" relative="1" as="geometry">
            <mxPoint x="454.25" y="410" as="sourcePoint" />
            <mxPoint x="504.25" y="360" as="targetPoint" />
            <Array as="points">
              <mxPoint x="179.25" y="190" />
              <mxPoint x="294.25" y="190" />
              <mxPoint x="294.25" y="149" />
            </Array>
          </mxGeometry>
        </mxCell>
        <mxCell id="d2gbGRnM_CAUKAUHNSUN-174" value="pre-executor-override:false" style="edgeLabel;html=1;align=center;verticalAlign=middle;resizable=0;points=[];container=0;" vertex="1" connectable="0" parent="d2gbGRnM_CAUKAUHNSUN-173">
          <mxGeometry x="-0.2344" relative="1" as="geometry">
            <mxPoint y="1" as="offset" />
          </mxGeometry>
        </mxCell>
        <mxCell id="d2gbGRnM_CAUKAUHNSUN-175" value="Flow3" style="rounded=0;whiteSpace=wrap;html=1;fillColor=#fff2cc;strokeColor=#d6b656;shadow=1;container=0;" vertex="1" parent="d2gbGRnM_CAUKAUHNSUN-153">
          <mxGeometry x="354.25" y="136.25" width="50" height="25" as="geometry" />
        </mxCell>
        <mxCell id="d2gbGRnM_CAUKAUHNSUN-176" style="edgeStyle=orthogonalEdgeStyle;rounded=0;orthogonalLoop=1;jettySize=auto;html=1;exitX=1;exitY=0.5;exitDx=0;exitDy=0;" edge="1" parent="d2gbGRnM_CAUKAUHNSUN-153" source="d2gbGRnM_CAUKAUHNSUN-177">
          <mxGeometry relative="1" as="geometry">
            <mxPoint x="484.25" y="130" as="targetPoint" />
          </mxGeometry>
        </mxCell>
        <mxCell id="d2gbGRnM_CAUKAUHNSUN-177" value="FR3" style="ellipse;whiteSpace=wrap;html=1;aspect=fixed;fillColor=#f8cecc;strokeColor=#b85450;shadow=1;container=0;" vertex="1" parent="d2gbGRnM_CAUKAUHNSUN-153">
          <mxGeometry x="404.25" y="130" width="37.5" height="37.5" as="geometry" />
        </mxCell>
        <mxCell id="d2gbGRnM_CAUKAUHNSUN-178" value="R1" style="ellipse;whiteSpace=wrap;html=1;aspect=fixed;fillColor=#dae8fc;strokeColor=#6c8ebf;shadow=1;container=0;" vertex="1" parent="d2gbGRnM_CAUKAUHNSUN-153">
          <mxGeometry x="483.25" y="144.75" width="30" height="30" as="geometry" />
        </mxCell>
        <mxCell id="d2gbGRnM_CAUKAUHNSUN-179" value="post-executor-override:false" style="edgeStyle=orthogonalEdgeStyle;rounded=0;orthogonalLoop=1;jettySize=auto;html=1;exitX=0.5;exitY=1;exitDx=0;exitDy=0;entryX=0;entryY=0.5;entryDx=0;entryDy=0;" edge="1" parent="d2gbGRnM_CAUKAUHNSUN-153" source="d2gbGRnM_CAUKAUHNSUN-171" target="d2gbGRnM_CAUKAUHNSUN-178">
          <mxGeometry relative="1" as="geometry">
            <mxPoint x="484.25" y="149" as="targetPoint" />
            <Array as="points">
              <mxPoint x="339.25" y="190" />
              <mxPoint x="454.25" y="190" />
              <mxPoint x="454.25" y="160" />
            </Array>
          </mxGeometry>
        </mxCell>
        <mxCell id="d2gbGRnM_CAUKAUHNSUN-180" value="Flow4" style="rounded=0;whiteSpace=wrap;html=1;fillColor=#d5e8d4;strokeColor=#82b366;shadow=1;container=0;" vertex="1" parent="d2gbGRnM_CAUKAUHNSUN-153">
          <mxGeometry x="513.25" y="136.25" width="50" height="25" as="geometry" />
        </mxCell>
        <mxCell id="d2gbGRnM_CAUKAUHNSUN-181" value="FR4" style="ellipse;whiteSpace=wrap;html=1;aspect=fixed;fillColor=#f8cecc;strokeColor=#b85450;shadow=1;container=0;" vertex="1" parent="d2gbGRnM_CAUKAUHNSUN-153">
          <mxGeometry x="563.25" y="130" width="37.5" height="37.5" as="geometry" />
        </mxCell>
        <mxCell id="d2gbGRnM_CAUKAUHNSUN-182" value="FR3" style="ellipse;whiteSpace=wrap;html=1;aspect=fixed;fillColor=#f8cecc;strokeColor=#b85450;shadow=1;container=0;" vertex="1" parent="d2gbGRnM_CAUKAUHNSUN-153">
          <mxGeometry x="483.25" y="121" width="30" height="30" as="geometry" />
        </mxCell>
        <mxCell id="d2gbGRnM_CAUKAUHNSUN-183" style="edgeStyle=orthogonalEdgeStyle;rounded=0;orthogonalLoop=1;jettySize=auto;html=1;entryX=0.5;entryY=0;entryDx=0;entryDy=0;" edge="1" parent="d2gbGRnM_CAUKAUHNSUN-153" source="d2gbGRnM_CAUKAUHNSUN-164" target="d2gbGRnM_CAUKAUHNSUN-182">
          <mxGeometry relative="1" as="geometry" />
        </mxCell>
        <mxCell id="d2gbGRnM_CAUKAUHNSUN-184" value="R1" style="ellipse;whiteSpace=wrap;html=1;aspect=fixed;fillColor=#dae8fc;strokeColor=#6c8ebf;shadow=1;container=0;" vertex="1" parent="d2gbGRnM_CAUKAUHNSUN-153">
          <mxGeometry x="13" y="133.75" width="30" height="30" as="geometry" />
        </mxCell>
        <mxCell id="d2gbGRnM_CAUKAUHNSUN-185" value="Flow1" style="rounded=0;whiteSpace=wrap;html=1;shadow=1;fillColor=#d5e8d4;strokeColor=#82b366;container=0;" vertex="1" parent="d2gbGRnM_CAUKAUHNSUN-153">
          <mxGeometry x="43" y="136.25" width="50" height="25" as="geometry" />
        </mxCell>
        <mxCell id="d2gbGRnM_CAUKAUHNSUN-186" value="FR1" style="ellipse;whiteSpace=wrap;html=1;aspect=fixed;fillColor=#f8cecc;strokeColor=#b85450;shadow=1;container=0;" vertex="1" parent="d2gbGRnM_CAUKAUHNSUN-153">
          <mxGeometry x="93" y="130" width="37.5" height="37.5" as="geometry" />
        </mxCell>
        <mxCell id="d2gbGRnM_CAUKAUHNSUN-187" value="application.jar&lt;br&gt;" style="whiteSpace=wrap;html=1;aspect=fixed;" vertex="1" parent="1">
          <mxGeometry x="440" y="320" width="80" height="80" as="geometry" />
        </mxCell>
        <mxCell id="d2gbGRnM_CAUKAUHNSUN-188" value="" style="whiteSpace=wrap;html=1;aspect=fixed;" vertex="1" parent="1">
          <mxGeometry x="623" y="280" width="80" height="80" as="geometry" />
        </mxCell>
        <mxCell id="d2gbGRnM_CAUKAUHNSUN-189" value="" style="whiteSpace=wrap;html=1;aspect=fixed;" vertex="1" parent="1">
          <mxGeometry x="903" y="280" width="80" height="80" as="geometry" />
        </mxCell>
      </root>
    </mxGraphModel>
  </diagram>
</mxfile>
